<?xml version="1.0" encoding="UTF-8"?>
<svg version="1.1" xmlns="http://www.w3.org/2000/svg" width="512" height="512">
<path d="M0 0 C0.31235596 1.08007324 0.62471191 2.16014648 0.9465332 3.27294922 C2.67753375 8.83926173 4.19445995 13.42590558 9.49072266 16.39746094 C15.79481419 18.93710006 22.36016533 20.59252833 29 22 C29.08040527 21.44014404 29.16081055 20.88028809 29.24365234 20.3034668 C29.61292486 17.76359885 29.99382568 15.22560785 30.375 12.6875 C30.50132812 11.80642578 30.62765625 10.92535156 30.7578125 10.01757812 C30.88671875 9.17001953 31.015625 8.32246094 31.1484375 7.44921875 C31.26364746 6.66893311 31.37885742 5.88864746 31.49755859 5.0847168 C32 3 32 3 34 0 C41.95058446 -1.56664469 51.0501425 0.85908818 58.93310547 2.07958984 C60.41566322 2.30355944 61.89831689 2.52689483 63.38105774 2.74964905 C67.37961267 3.35236141 71.37669237 3.96436602 75.37350607 4.57850599 C79.5656234 5.22140999 83.75886513 5.85690368 87.95193481 6.49356079 C94.98504974 7.56267018 102.01720282 8.63793659 109.04882812 9.71679688 C117.17627334 10.96370061 125.30523178 12.20033626 133.43505371 13.43164098 C141.26778673 14.61822976 149.09933547 15.81246834 156.93039322 17.01005936 C160.25925687 17.51897327 163.58852359 18.02512205 166.91814804 18.52903366 C170.83435622 19.12204214 174.74948728 19.72171196 178.66388512 20.32655144 C180.10025255 20.54738667 181.53697758 20.76591019 182.97407341 20.98195457 C184.9349153 21.27712403 186.89436654 21.58148813 188.85372925 21.88632202 C189.95057981 22.05408834 191.04743038 22.22185467 192.17751884 22.39470482 C194.79615376 22.95628416 196.73728474 23.58452923 199 25 C200.44604497 28.23470224 199.84208866 31.00892466 199.22265625 34.41796875 C199.03888428 35.49481934 198.8551123 36.57166992 198.66577148 37.68115234 C198.46669189 38.83824707 198.2676123 39.9953418 198.0625 41.1875 C196.55342903 50.50187342 195.73298749 59.44149007 195.9375 68.875 C196.56075622 101.41459443 186.65264586 132.76189508 164.140625 156.81640625 C163.43421875 157.53699219 162.7278125 158.25757813 162 159 C161.20078125 159.81984375 160.4015625 160.6396875 159.578125 161.484375 C157 164 157 164 154.28125 166.26171875 C148.31178504 171.46823243 145.29205288 175.48058163 143.48754883 183.09521484 C143.2868192 183.87588507 143.08608957 184.65655529 142.87927723 185.46088219 C142.45388436 187.12366601 142.03654139 188.78852735 141.62674332 190.45522308 C141.00929182 192.96227227 140.36885648 195.46225474 139.72055054 197.96148682 C138.35728149 203.23165159 137.02728231 208.50993554 135.69921875 213.7890625 C135.21330578 215.71394474 134.72720286 217.63877903 134.24092102 219.56356812 C132.97816956 224.56385777 131.71795226 229.56478251 130.45831299 234.56585693 C129.16583535 239.69534236 127.87089119 244.82420502 126.57617188 249.953125 C124.0484052 259.96815164 121.52332281 269.98385286 119 280 C121.31 280 123.62 280 126 280 C126.12526062 278.85919479 126.25052124 277.71838959 126.37957764 276.54301453 C126.94346594 272.05410049 127.88119206 267.7100458 128.92675781 263.31176758 C129.12060059 262.48292053 129.31444336 261.65407349 129.51416016 260.80010986 C131.30398267 253.18517015 133.15084303 245.5836507 135.01390457 237.98633289 C136.26078546 232.90064514 137.48952375 227.81209984 138.67480469 222.71166992 C139.82796081 217.75109618 141.02691364 212.80363617 142.25753021 207.86173058 C142.71503721 205.99235763 143.15692518 204.1190807 143.58176422 202.24201393 C146.67538621 188.65020372 151.21526932 180.87133718 162 172 C163.29372253 170.85648838 164.58608598 169.71142883 165.875 168.5625 C166.48601562 168.04300781 167.09703125 167.52351562 167.7265625 166.98828125 C170.97138885 164.15045202 174.10523079 161.19785339 177.25 158.25 C183.03337454 152.82985003 188.85140188 147.45135267 194.70703125 142.109375 C196.16490425 140.76823119 197.59927512 139.40072488 199 138 C202.09825542 137.73583693 203.29183234 137.67335208 206 139 C208.74528684 142.15402425 210.66619127 145.72836569 212.6875 149.375 C213.91771347 151.49569586 215.14950763 153.61547548 216.3828125 155.734375 C216.99157227 156.79591797 217.60033203 157.85746094 218.22753906 158.95117188 C220.72649523 163.24965185 223.38129124 167.43872443 226.0625 171.625 C227.02789199 173.15199728 227.99273064 174.67934453 228.95703125 176.20703125 C231.16513222 179.69569921 233.39832934 183.1674215 235.63671875 186.63671875 C236.84159055 188.52836265 238.04602696 190.42028394 239.25 192.3125 C239.82371338 193.1905127 240.39742676 194.06852539 240.98852539 194.97314453 C243.20633433 198.4822626 244.85670596 201.21739409 245.609375 205.328125 C244.82768622 208.75552964 243.57545078 210.06651913 241 212.4375 C240.17757813 213.20707031 239.35515625 213.97664062 238.5078125 214.76953125 C235.65497714 217.30686613 232.79646385 219.83465353 229.8984375 222.3203125 C227.41040974 224.52165393 225.10805923 226.88088515 222.78125 229.25 C220.28103815 231.70634849 217.62319484 233.96309368 214.96875 236.25 C213.06976929 237.93798286 211.27994012 239.68769734 209.5 241.5 C207.10946833 243.93389732 204.64953738 246.21355559 202.0625 248.4375 C199.25423653 250.85617779 196.60029407 253.35899683 194 256 C190.78304646 259.2673168 187.4231814 262.2840551 183.94921875 265.2734375 C180.82393648 268.0417236 177.91746678 271.0160593 175 274 C173.66666667 275.33333333 172.33333333 276.66666667 171 278 C173.80007345 281.18371341 175.52287949 282.81658187 179.80371094 283.34814453 C183.17131028 283.34762882 186.51190746 283.23723051 189.875 283.0625 C205.07148308 282.31891506 205.07148308 282.31891506 211 287 C216.41021842 292.76188262 216.76338407 300.82314832 218.06640625 308.32226562 C219.37180713 315.98383981 219.37180713 315.98383981 224 322 C226.38574074 323.58203629 228.86012065 324.9482835 231.375 326.3125 C242.6090482 332.81230529 242.6090482 332.81230529 245 339 C247.43404682 348.14216394 243.25482087 355.80654871 239.02709961 363.70605469 C236.37243316 368.91923024 235.49153391 372.17332137 237.20458984 377.84106445 C237.4670752 378.55351318 237.72956055 379.26596191 238 380 C238.36859131 381.01936646 238.36859131 381.01936646 238.74462891 382.05932617 C239.50479591 384.05458218 240.31182566 386.0258449 241.125 388 C243.42984636 393.91003888 245.03481256 398.58416213 244 405 C239.96909679 412.9125137 232.91947468 416.25279999 225.3515625 420.08789062 C219.54460255 422.9162091 219.54460255 422.9162091 216.27978516 428.14135742 C216.03687744 429.36109253 216.03687744 429.36109253 215.7890625 430.60546875 C215.59570312 431.50716797 215.40234375 432.40886719 215.203125 433.33789062 C214.82182227 435.21735239 214.44413593 437.09755196 214.0703125 438.97851562 C212.52605157 446.13596185 210.36468204 452.43643273 204.375 457 C198.05339506 458.87306813 191.74781488 458.55135073 185.375 457 C177.21282091 454.96253615 177.21282091 454.96253615 169.4921875 457.54296875 C166.1266253 460.20351257 162.99293914 463.04225833 159.90625 466.01953125 C155.33245046 470.33015582 151.45797073 472.93202136 145 473 C136.03937389 471.5010105 130.18072295 464.49314209 124.67578125 457.83203125 C122.05894375 454.97119958 120.25934532 453.12858555 116.28613281 452.72290039 C115.26874023 452.76406982 114.25134766 452.80523926 113.203125 452.84765625 C112.0790625 452.87537109 110.955 452.90308594 109.796875 452.93164062 C107.44774724 453.01830999 105.09877796 453.10939688 102.75 453.20507812 C95.60923384 453.3721851 91.02381817 452.96863315 85 449 C79.76742952 442.25273806 78.54547069 433.40879217 79 425 C81.97 424.67 84.94 424.34 88 424 C88.17015625 425.03640625 88.3403125 426.0728125 88.515625 427.140625 C88.75958686 428.5105647 89.00442479 429.88034859 89.25 431.25 C89.41435547 432.27287109 89.41435547 432.27287109 89.58203125 433.31640625 C90.41237293 437.81773221 91.38477069 440.19135418 95 443 C97.78297784 443.48475534 97.78297784 443.48475534 100.83203125 443.25 C102.52489258 443.20359375 102.52489258 443.20359375 104.25195312 443.15625 C106.61395487 443.0525966 108.97593438 442.94843504 111.33789062 442.84375 C119.45508594 442.62199395 123.92488655 443.14547056 129.83569336 448.73632812 C132.45675806 451.38107815 134.9787901 454.10750344 137.48242188 456.86328125 C141.19143149 460.83200774 141.19143149 460.83200774 146.1640625 462.7109375 C149.71843985 461.81989524 151.23599261 460.46432583 153.8125 457.875 C161.7196319 450.29085231 167.75927368 445.76614835 178.76171875 445.83203125 C182.54781122 446.02841482 186.0522154 446.71836084 189.7421875 447.54296875 C192.91482213 448.18518026 195.78239963 448.32832657 199 448 C201.85524482 445.82340434 202.52219813 443.85296234 203.2109375 440.39453125 C203.40429688 439.49283203 203.59765625 438.59113281 203.796875 437.66210938 C204.17817773 435.78264761 204.55586407 433.90244804 204.9296875 432.02148438 C206.46911193 424.88645472 208.48694899 418.60106081 214.54296875 414.1171875 C215.41566406 413.70726562 216.28835938 413.29734375 217.1875 412.875 C218.13753906 412.39675781 219.08757812 411.91851562 220.06640625 411.42578125 C221.51853516 410.72001953 221.51853516 410.72001953 223 410 C224.89043127 409.05096788 226.7666856 408.07297512 228.625 407.0625 C229.44226563 406.64097656 230.25953125 406.21945312 231.1015625 405.78515625 C233.27451038 404.03562338 233.27451038 404.03562338 233.984375 400.828125 C234.00394784 396.03277913 232.64532317 392.95578838 230.625 388.6875 C226.88599254 380.14356012 224.52039934 373.67326451 227.625 364.5 C229.12380622 360.78966851 230.8763974 357.28307918 232.75 353.75 C234.84862427 349.63747853 235.91767557 346.6801454 235 342 C231.61399365 338.1064022 228.02629066 335.65921331 223.5625 333.125 C215.973113 328.58455933 211.58382459 325.02468984 209.25 316.3125 C208.13063794 311.1084483 207.27112644 305.86398163 206.52734375 300.59375 C206.01037303 298.05101993 205.36447574 296.19915504 204 294 C201.27775821 292.6388791 199.25513413 292.98912665 196.21484375 293.11328125 C195.04373047 293.14357422 193.87261719 293.17386719 192.66601562 293.20507812 C190.20701356 293.27592418 187.74849249 293.36663264 185.29101562 293.47851562 C177.11642246 293.64370402 172.07697311 292.60639521 166 287 C163.49650228 284.50258889 161.2799506 281.82965734 159.0859375 279.06054688 C156.65147909 276.18774104 155.09102363 275.02667762 151.44140625 273.95703125 C147.55522176 274.00555342 146.43388116 274.48143505 143.5625 277 C142.80582031 277.64324219 142.04914063 278.28648437 141.26953125 278.94921875 C140.52058594 279.62597656 139.77164062 280.30273438 139 281 C137.5850244 282.27271594 136.16844218 283.54364871 134.75 284.8125 C134.14671875 285.37582031 133.5434375 285.93914062 132.921875 286.51953125 C127.18616748 290.93789131 120.90952244 290.44799896 114 290 C111.3931961 289.57168661 108.83621445 289.03299452 106.2578125 288.4609375 C103.0567281 287.80742892 100.24480917 287.60267643 97 288 C92.70931841 291.93933546 92.61363249 298.28562955 91.71484375 303.73828125 C90.44932399 310.56343483 88.14697047 316.13803818 82.9296875 320.8828125 C82.25164062 321.29273438 81.57359375 321.70265625 80.875 322.125 C80.10800781 322.59421875 79.34101563 323.0634375 78.55078125 323.546875 C77.70902344 324.02640625 76.86726563 324.5059375 76 325 C75.02417969 325.56203125 74.04835938 326.1240625 73.04296875 326.703125 C65.38288551 331 65.38288551 331 63 331 C60.79583228 337.97024766 64.36651248 343.62545117 67.10742188 349.94921875 C70.13504568 357.30735914 71.27390007 363.56223335 69.046875 371.3203125 C68.61890625 372.24585938 68.1909375 373.17140625 67.75 374.125 C67.07324219 375.63900391 67.07324219 375.63900391 66.3828125 377.18359375 C65.20759167 379.57719324 63.9419791 381.87127452 62.625 384.1875 C60.57920571 388.0384069 61.21819628 390.77396587 61.96875 394.9453125 C62 397 62 397 59.5625 400.0625 C58.716875 400.701875 57.87125 401.34125 57 402 C54.61085475 401.0443419 53.26632082 400.43036412 51.89257812 398.21044922 C49.96605475 393.43945835 50.23964702 388.28193089 51.8515625 383.44433594 C52.99267056 380.87584533 54.21384611 378.37392362 55.5 375.875 C58.70695914 369.58627833 60.59241979 365.12549364 60 358 C59.11405151 358.09849243 59.11405151 358.09849243 58.21020508 358.19897461 C51.7063544 358.8897669 45.22146708 359.29575157 38.6875 359.5625 C37.68581787 359.6049585 36.68413574 359.64741699 35.65209961 359.69116211 C28.42964511 359.98141519 21.22855792 360.12486952 14 360 C13.60361328 361.31871094 13.60361328 361.31871094 13.19921875 362.6640625 C10.10744544 371.26463061 4.15275755 378.37780196 -2 385 C-1.289646 384.88027832 -0.57929199 384.76055664 0.15258789 384.63720703 C7.9071678 383.3366987 15.66836557 382.08542487 23.4375 380.875 C25.15356445 380.60236328 25.15356445 380.60236328 26.90429688 380.32421875 C28.55848633 380.06705078 28.55848633 380.06705078 30.24609375 379.8046875 C31.23279053 379.64983887 32.2194873 379.49499023 33.23608398 379.33544922 C35.85735196 379.01731282 38.36289655 378.93803544 41 379 C41.33 381.97 41.66 384.94 42 388 C40.75633667 388.18006592 40.75633667 388.18006592 39.48754883 388.36376953 C-6.90461873 394.57170472 -6.90461873 394.57170472 -44.6953125 420.078125 C-49.26197487 427.01545909 -53.05142623 433.43838645 -52 442 C-49.70007449 449.8033187 -45.77974607 454.35465778 -38.734375 458.25390625 C-27.52738118 463.18704617 -13.54870636 462.46214439 -2.1953125 458.37890625 C10.17082572 453.04241873 21.11827658 445.87243541 32 438 C32.55848633 437.59604004 33.11697266 437.19208008 33.69238281 436.77587891 C50.30424497 424.68020802 65.17153218 411.03337718 79.578125 396.43798828 C81.70938228 394.2825787 83.85466579 392.14139058 86 390 C87.98 391.32 89.96 392.64 92 394 C89.43136152 408.5136076 65.32160275 425.35303092 54 434 C52.64283136 435.08250765 51.28752738 436.16735517 49.93359375 437.25390625 C25.49884483 456.74685567 1.30055879 472.84184813 -31 471 C-40.91395566 469.56460519 -50.24877697 464.04332947 -56.52734375 456.265625 C-60.89230332 449.55030258 -63.13493513 441.98413667 -62 434 C-61.3827166 431.31807616 -60.69713 428.66303658 -60 426 C-60.92727905 426.36967896 -60.92727905 426.36967896 -61.87329102 426.74682617 C-80.32600253 434.08509706 -98.57052162 440.73306019 -118 445 C-118.75249023 445.16806152 -119.50498047 445.33612305 -120.28027344 445.50927734 C-147.49267235 451.3061791 -180.70426368 451.75909216 -205 437 C-211.91309385 432.50954789 -216.47048919 425.98607049 -218.88671875 418.109375 C-221.50777859 405.35466343 -218.05876518 393.052052 -211.2109375 382.15234375 C-199.81695171 366.01464674 -199.81695171 366.01464674 -193.84960938 362.86499023 C-190.98086079 361.12836841 -189.6329355 359.96281292 -188 357 C-187.4164492 350.19225615 -189.23163582 343.21338435 -190.5 336.5625 C-190.99130191 333.76888399 -191.47013086 330.9734065 -191.94519043 328.17698669 C-192.24448053 326.44179551 -192.55541947 324.70855837 -192.88000488 322.97792053 C-194.84830933 312.22035983 -194.14658134 302.34912832 -188.64453125 292.59765625 C-187.20600573 290.58834848 -185.69634447 288.79540108 -184 287 C-183.52175781 286.47019531 -183.04351562 285.94039063 -182.55078125 285.39453125 C-177.11899555 280.07220219 -169.96414003 277.71757999 -163 275 C-161.75765846 274.50429214 -160.51546876 274.00820354 -159.2734375 273.51171875 C-150.35070423 270 -150.35070423 270 -148 270 C-148.15952652 269.41844839 -148.31905304 268.83689678 -148.4834137 268.2377224 C-149.29906927 264.70450689 -149.32028007 261.11718806 -149.46484375 257.50634766 C-149.50239777 256.6504303 -149.53995178 255.79451294 -149.5786438 254.91265869 C-149.70204229 252.0799425 -149.819705 249.24701676 -149.9375 246.4140625 C-150.02294181 244.43547808 -150.10880433 242.45691178 -150.19506836 240.47836304 C-150.42174146 235.25932089 -150.64382923 230.04009456 -150.86462402 224.82080078 C-151.21695793 216.50330614 -151.57499255 208.18605909 -151.93533325 199.86890793 C-152.05961175 196.98117383 -152.18120645 194.09333607 -152.30249023 191.20547485 C-152.71798443 181.45548023 -153.22329011 171.72915893 -154 162 C-154.90363281 162.84304687 -155.80726563 163.68609375 -156.73828125 164.5546875 C-157.92958526 165.66156839 -159.12099715 166.76833316 -160.3125 167.875 C-160.90740234 168.43058594 -161.50230469 168.98617187 -162.11523438 169.55859375 C-162.69208984 170.09355469 -163.26894531 170.62851563 -163.86328125 171.1796875 C-164.39219971 171.67194824 -164.92111816 172.16420898 -165.46606445 172.67138672 C-167.60894505 174.52743577 -169.48194341 175.87048585 -172.25 176.5625 C-178.64048337 175.25535567 -183.09204934 167.78574137 -187.18359375 163.03515625 C-189.05228832 160.94141459 -191.00044735 158.96873103 -193 157 C-196.25029983 153.79970478 -199.24724245 150.45775424 -202.21875 147 C-204.70257428 144.21114467 -207.36711437 141.62313017 -210.02734375 139.00390625 C-212.56961762 136.42135873 -214.91616107 133.69824835 -217.26171875 130.9375 C-219.53626733 128.40227282 -222.04028493 126.15805001 -224.6171875 123.93359375 C-226.828279 120.84181326 -227.0861849 118.79997043 -227 115 C-225.32120874 111.95377514 -223.08005469 109.5041476 -220.75 106.9375 C-219.44767721 105.43623171 -218.14691546 103.93360792 -216.84765625 102.4296875 C-216.19555176 101.68557617 -215.54344727 100.94146484 -214.87158203 100.17480469 C-212.19116325 97.0601203 -209.68807815 93.82185865 -207.1875 90.5625 C-203.33266187 85.5961742 -199.30634878 80.85604743 -195.04296875 76.23046875 C-193.15961002 74.17425874 -191.35917369 72.06921774 -189.5625 69.9375 C-171.44151401 49.35665166 -146.39512633 35.95677792 -121.5546875 25.34765625 C-120.59167725 24.93265869 -119.62866699 24.51766113 -118.63647461 24.09008789 C-117.04520552 23.43215507 -115.43646386 22.81207112 -113.80297852 22.26733398 C-110.14688646 21.01107459 -109.11136612 20.21432245 -107.29296875 16.71484375 C-106.92816406 15.46832031 -106.56335938 14.22179687 -106.1875 12.9375 C-104.12869822 6.12869822 -104.12869822 6.12869822 -102 4 C-94.18996954 2.78387329 -86.26687006 2.60129853 -78.37890625 2.24609375 C-76.95189527 2.18034764 -75.52488832 2.11451425 -74.09788513 2.04859924 C-71.10660802 1.91123372 -68.11523271 1.7762903 -65.1237793 1.64282227 C-62.11316017 1.50819847 -59.10277444 1.36954658 -56.0925293 1.22680664 C-37.37951824 0.34009989 -18.73985854 -0.23255463 0 0 Z M41 9 C39.45357192 14.6702363 38.51482919 20.147205 38 26 C41.08046594 27.48519268 44.16484002 28.96208605 47.25 30.4375 C48.55904297 31.06881836 48.55904297 31.06881836 49.89453125 31.71289062 C51.16103516 32.31713867 51.16103516 32.31713867 52.453125 32.93359375 C53.22817383 33.30540771 54.00322266 33.67722168 54.80175781 34.06030273 C59.29183912 35.97970777 63.11588782 36.09392523 68 36 C68.50534727 33.27172635 69.00443845 30.54255306 69.5 27.8125 C69.64308594 27.04357422 69.78617187 26.27464844 69.93359375 25.48242188 C70.63238715 21.60578227 71.19039017 17.958529 71 14 C64.54500633 12.23256126 58.13284756 11.22804339 51.5 10.375 C50.48679687 10.2409375 49.47359375 10.106875 48.4296875 9.96875 C45.95363391 9.64172405 43.47711025 9.31890558 41 9 Z M-40.07421875 9.65625 C-41.49338218 9.72373748 -42.91255661 9.79099407 -44.33174133 9.85803223 C-48.02903291 10.03329174 -51.72616877 10.21164316 -55.42327881 10.39068604 C-59.2111316 10.57355916 -62.99912632 10.75344265 -66.78710938 10.93359375 C-74.19154661 11.28617182 -81.59582159 11.64202339 -89 12 C-88.59021408 12.47789474 -88.18042816 12.95578949 -87.75822449 13.44816589 C-87.21950211 14.07652847 -86.68077972 14.70489105 -86.12573242 15.35229492 C-85.32542854 16.28569954 -85.32542854 16.28569954 -84.50895691 17.23796082 C-83.33306524 18.61107305 -82.16009363 19.98668612 -80.98828125 21.36328125 C-80.43527344 22.00652344 -79.88226563 22.64976563 -79.3125 23.3125 C-78.75175781 23.96863281 -78.19101563 24.62476563 -77.61328125 25.30078125 C-75.91117139 27.21917772 -75.91117139 27.21917772 -73 29 C-70.41450784 28.39146342 -70.41450784 28.39146342 -67.6875 27.1875 C-54.58949904 21.83503936 -40.32479166 23.16684075 -27 27 C-24.82543857 24.38145079 -22.66173829 21.75414116 -20.5 19.125 C-19.87996094 18.37863281 -19.25992188 17.63226563 -18.62109375 16.86328125 C-18.03457031 16.14785156 -17.44804687 15.43242188 -16.84375 14.6953125 C-16.29912109 14.03547363 -15.75449219 13.37563477 -15.19335938 12.69580078 C-13.80816692 11.07300043 -13.80816692 11.07300043 -14 9 C-22.70955841 8.89290569 -31.37666085 9.23096353 -40.07421875 9.65625 Z M80 15 C79.49490361 18.08252089 78.99682001 21.16613525 78.5 24.25 C78.35691406 25.12269531 78.21382813 25.99539062 78.06640625 26.89453125 C77.93105469 27.73886719 77.79570312 28.58320312 77.65625 29.453125 C77.53056641 30.22817383 77.40488281 31.00322266 77.27539062 31.80175781 C76.91712934 34.29225843 76.91712934 34.29225843 77 38 C80.85255857 38.6761872 84.70726957 39.33923092 88.5625 40 C90.19155273 40.28617188 90.19155273 40.28617188 91.85351562 40.578125 C92.91376953 40.75859375 93.97402344 40.9390625 95.06640625 41.125 C96.03521729 41.29257812 97.00402832 41.46015625 98.00219727 41.6328125 C101.65464458 42.14183977 101.65464458 42.14183977 108 42 C108.99 34.74 109.98 27.48 111 20 C103.65892422 18.34796174 103.65892422 18.34796174 96.30859375 17.1484375 C95.34501953 17.01953125 94.38144531 16.890625 93.38867188 16.7578125 C92.41478516 16.63148437 91.44089844 16.50515625 90.4375 16.375 C88.92446289 16.17390625 88.92446289 16.17390625 87.38085938 15.96875 C84.92101352 15.64232496 82.46075593 15.31947892 80 15 Z M120 21 C118.71451877 26.50075559 117.63654933 31.9596728 116.875 37.5625 C116.70742188 38.78066406 116.53984375 39.99882813 116.3671875 41.25390625 C116.24601562 42.16011719 116.12484375 43.06632812 116 44 C119.85255857 44.6761872 123.70726957 45.33923092 127.5625 46 C129.19155273 46.28617188 129.19155273 46.28617188 130.85351562 46.578125 C136.30913274 47.50674068 141.46452096 48.25413964 147 48 C147.50688605 45.45953542 148.00566874 42.91791124 148.5 40.375 C148.64308594 39.66214844 148.78617187 38.94929688 148.93359375 38.21484375 C149.73049426 34.07855065 150.16034056 30.23566321 150 26 C143.34141024 24.42925575 136.71392842 23.29927277 129.9375 22.375 C128.97650391 22.2409375 128.01550781 22.106875 127.02539062 21.96875 C124.68402313 21.64258935 122.34225236 21.31973298 120 21 Z M12 27 C12.33 27.7425 12.66 28.485 13 29.25 C14.66714143 35.50178037 14.89768722 41.94786345 13.0625 48.1875 C7.78664089 55.38185334 0.8246408 61.30404979 -6 67 C-6.7321875 67.62132812 -7.464375 68.24265625 -8.21875 68.8828125 C-14.43792199 73.97316218 -19.69710412 77.40693313 -27.9375 77 C-32.65834169 76.36520367 -36.18753995 74.57999714 -40.1875 72.05859375 C-41.93800388 70.83188873 -41.93800388 70.83188873 -44 71 C-44.19214395 81.61488582 -43.67914846 92.20043645 -43.20043945 102.80175781 C-43.06189469 105.88848599 -42.93014484 108.97545683 -42.79882812 112.0625 C-42.71134623 114.03908063 -42.62346964 116.01564384 -42.53515625 117.9921875 C-42.49656998 118.9078952 -42.4579837 119.82360291 -42.41822815 120.76705933 C-42.21017522 125.25310731 -41.86821761 129.58122215 -41 134 C-45.455 134.495 -45.455 134.495 -50 135 C-50.05534912 133.52313721 -50.11069824 132.04627441 -50.16772461 130.5246582 C-50.37578126 124.99119362 -50.58719104 119.45786115 -50.79956055 113.92456055 C-50.89063005 111.53982913 -50.9808171 109.15506383 -51.07006836 106.77026367 C-51.19927871 103.32200765 -51.33177143 99.87389015 -51.46484375 96.42578125 C-51.50343002 95.37731522 -51.5420163 94.32884918 -51.58177185 93.24861145 C-51.8729937 85.8155746 -52.38422151 78.41298045 -53 71 C-53.81984375 71.49371094 -54.6396875 71.98742187 -55.484375 72.49609375 C-56.56203125 73.13675781 -57.6396875 73.77742188 -58.75 74.4375 C-59.81734375 75.07558594 -60.8846875 75.71367188 -61.984375 76.37109375 C-66.78766988 78.96561961 -70.53204609 79.36453026 -76 79 C-82.27081813 77.06043661 -86.80684457 74.28766807 -91.9375 70.25 C-92.63262695 69.71358887 -93.32775391 69.17717773 -94.04394531 68.62451172 C-95.41551 67.5649572 -96.78427523 66.50176667 -98.14990234 65.43457031 C-99.7136016 64.22207403 -101.30155731 63.04095777 -102.89453125 61.8671875 C-108.25418089 57.9030022 -111.84317179 54.47048464 -114 48 C-114.29098034 42.95063533 -114.31036161 37.91385603 -113 33 C-116.34983249 33.58432008 -119.26548394 34.40600095 -122.37109375 35.78515625 C-123.5926416 36.32716675 -123.5926416 36.32716675 -124.83886719 36.88012695 C-148.28320935 47.54725859 -167.15991691 61.17518999 -185.4375 79.3125 C-186.04158691 79.91175293 -186.64567383 80.51100586 -187.26806641 81.12841797 C-190.07766648 83.94913259 -192.73273959 86.70881553 -195 90 C-193.45555924 93.48509931 -191.37524647 96.14322337 -188.9375 99.0625 C-188.12539062 100.04089844 -187.31328125 101.01929687 -186.4765625 102.02734375 C-185.65929687 103.00832031 -184.84203125 103.98929687 -184 105 C-182.60232464 106.7068266 -181.20648078 108.41515467 -179.8125 110.125 C-177.09264533 113.44979608 -174.36741401 116.77003876 -171.63671875 120.0859375 C-171.04189697 120.80837646 -170.4470752 121.53081543 -169.83422852 122.27514648 C-168.61624104 123.75252168 -167.39668839 125.22860796 -166.17553711 126.70336914 C-163.49011582 129.95052366 -160.8221925 133.20336806 -158.2421875 136.53515625 C-157.07042969 138.03369141 -157.07042969 138.03369141 -155.875 139.5625 C-155.21242187 140.43003906 -154.54984375 141.29757813 -153.8671875 142.19140625 C-151.9543919 144.46383118 -151.9543919 144.46383118 -148 144 C-146.27792373 142.72588656 -146.27792373 142.72588656 -144.75 140.9375 C-141.59857585 137.58911184 -138.28859773 134.56703966 -134.796875 131.578125 C-133.12659942 130.11118731 -131.55211328 128.59043707 -130 127 C-126.17053157 128.45255699 -124.87949705 130.42895561 -123 134 C-123.58265625 134.25394531 -124.1653125 134.50789063 -124.765625 134.76953125 C-127.24188033 136.13320333 -128.80520626 137.64225203 -130.75 139.6875 C-134.16639484 143.20004104 -137.71795185 146.46023652 -141.43359375 149.65234375 C-142.31248398 150.40849619 -143.18017851 151.18017851 -144 152 C-144.13857746 155.06320639 -144.19007741 158.09132584 -144.1875 161.15625 C-144.18669434 162.19068237 -144.18588867 163.22511475 -144.18505859 164.29089355 C-144.05369986 182.66115523 -143.00387101 201.02136801 -142.14575195 219.36853027 C-141.90045423 224.63873332 -141.66146081 229.90922225 -141.421875 235.1796875 C-140.95395032 245.45340782 -140.47923871 255.72680164 -140 266 C-135.88983996 265.3588662 -132.33330383 264.49305883 -128.47265625 262.93359375 C-113.70232623 257.15525253 -100.91349218 252.17190836 -85.4296875 258.7421875 C-74.17780061 264.5671193 -68.55425375 274.48360837 -62 284.9375 C-60.23568192 287.73999215 -58.46932076 290.5402711 -56.68041992 293.32714844 C-55.57814601 295.08040934 -54.51638175 296.85994084 -53.5012207 298.66503906 C-50.5823173 303.77133757 -50.5823173 303.77133757 -45.29296875 305.9921875 C-43.92392194 305.99285565 -42.554394 305.95174904 -41.1875 305.875 C-39.67573226 305.87962719 -38.16397042 305.89289844 -36.65234375 305.9140625 C-35.8826123 305.91825195 -35.11288086 305.92244141 -34.31982422 305.92675781 C-18.314957 306.43206829 -2.70956403 311.39713447 8.77734375 322.7578125 C16.46209272 331.13775881 17 339.96598327 17 351 C21.59000248 350.8812206 26.17981177 350.75693958 30.76953125 350.62768555 C32.32906099 350.58452692 33.88863219 350.54283944 35.44824219 350.50268555 C37.69739242 350.44451787 39.94633759 350.38096077 42.1953125 350.31640625 C43.23161301 350.29133751 43.23161301 350.29133751 44.28884888 350.26576233 C48.27363963 350.14538407 52.08458012 349.74845781 56 349 C55.77183594 348.29875 55.54367187 347.5975 55.30859375 346.875 C53.12033642 339.65276953 52.0217128 334.35223183 55.25 327.25 C57 325 57 325 59.58739567 323.28117275 C62.29186882 321.18534726 62.29186882 321.18534726 62.51031399 317.89132023 C62.45796124 316.69009242 62.4056085 315.48886461 62.35166931 314.25123596 C62.33009606 313.59183472 62.30852281 312.93243348 62.28629583 312.25305039 C62.21332294 310.16712758 62.10663403 308.08443889 62 306 C61.95759249 304.72650129 61.91518497 303.45300259 61.87149239 302.14091301 C61.73454551 298.08563029 61.55781875 294.03353768 61.37329102 289.98022461 C61.30567602 288.44098079 61.23834245 286.90172459 61.17126465 285.36245728 C60.9904221 281.23276723 60.80543487 277.1032731 60.61942792 272.97381282 C60.46400298 269.51411181 60.31072081 266.05431718 60.15743965 262.59452063 C59.79599326 254.43633347 59.43122845 246.27829954 59.06420898 238.12036133 C58.68621211 229.71737808 58.31330899 221.31417984 57.94296318 212.91085619 C57.6237616 205.67133361 57.30171424 198.43194162 56.97731918 191.1926499 C56.78403566 186.87905358 56.59175524 182.56541888 56.40210152 178.2516613 C56.224001 174.20404539 56.04232898 170.15660515 55.85791779 166.109272 C55.7909494 164.62667123 55.72521954 163.14401391 55.66083336 161.66129875 C55.57261155 159.63435462 55.47942323 157.60762849 55.38600159 155.58091736 C55.30995367 153.88177893 55.30995367 153.88177893 55.23236942 152.14831448 C55.00671328 146.02559706 55.00671328 146.02559706 52.09814453 140.95776367 C51.28458496 140.36713135 50.47102539 139.77649902 49.6328125 139.16796875 C48.30443359 138.18860352 48.30443359 138.18860352 46.94921875 137.18945312 C46.01722656 136.52880859 45.08523438 135.86816406 44.125 135.1875 C42.73861328 134.1675293 42.73861328 134.1675293 41.32421875 133.12695312 C36.46638826 129.49356778 36.46638826 129.49356778 31 127 C32.32 124.69 33.64 122.38 35 120 C38.47572799 120.60999979 40.49079461 121.9254553 43.22265625 124.125 C44.00833984 124.74890625 44.79402344 125.3728125 45.60351562 126.015625 C46.41498047 126.67046875 47.22644531 127.3253125 48.0625 128 C49.6753866 129.29540931 51.29115117 130.58724575 52.91015625 131.875 C53.62308838 132.44992188 54.33602051 133.02484375 55.07055664 133.6171875 C57.05305694 135.18191081 57.05305694 135.18191081 60 136 C71.11339948 120.15534951 71.11339948 120.15534951 81.92578125 104.10546875 C83.6900418 101.46406171 85.483007 98.84838317 87.29296875 96.23828125 C87.88247314 95.38588867 88.47197754 94.53349609 89.0793457 93.65527344 C90.25223544 91.96171952 91.42899322 90.27083613 92.61010742 88.58300781 C93.41798706 87.41463379 93.41798706 87.41463379 94.2421875 86.22265625 C94.7254248 85.52922119 95.20866211 84.83578613 95.70654297 84.12133789 C97.10667567 81.82504627 98.06783736 79.51848898 99 77 C76.361034 52.95261906 46.67375712 36.07258442 15 27 C14.01 27 13.02 27 12 27 Z M159 27 C158.49490361 30.08252089 157.99682001 33.16613525 157.5 36.25 C157.35691406 37.12269531 157.21382813 37.99539062 157.06640625 38.89453125 C156.93105469 39.73886719 156.79570312 40.58320312 156.65625 41.453125 C156.53056641 42.22817383 156.40488281 43.00322266 156.27539062 43.80175781 C155.91712934 46.29225843 155.91712934 46.29225843 156 50 C159.85255857 50.6761872 163.70726957 51.33923092 167.5625 52 C169.19155273 52.28617188 169.19155273 52.28617188 170.85351562 52.578125 C171.91376953 52.75859375 172.97402344 52.9390625 174.06640625 53.125 C175.03521729 53.29257813 176.00402832 53.46015625 177.00219727 53.6328125 C180.65464458 54.14183977 180.65464458 54.14183977 187 54 C187.99 46.74 188.98 39.48 190 32 C179.6822943 29.99124314 169.43369839 28.27423041 159 27 Z M-66 35 C-66.30464538 37.91259706 -66.30464538 37.91259706 -64.87011719 39.47045898 C-64.35094727 39.97391846 -63.83177734 40.47737793 -63.296875 40.99609375 C-62.72839844 41.55490234 -62.15992188 42.11371094 -61.57421875 42.68945312 C-60.97222656 43.26630859 -60.37023437 43.84316406 -59.75 44.4375 C-59.16347656 45.01048828 -58.57695312 45.58347656 -57.97265625 46.17382812 C-56.83426846 47.28535508 -55.69308999 48.39403277 -54.54882812 49.49951172 C-52.67794658 51.31200194 -50.83506476 53.15130853 -49 55 C-46.89047531 52.44186981 -44.78836576 49.87774417 -42.6875 47.3125 C-42.09259766 46.59126953 -41.49769531 45.87003906 -40.88476562 45.12695312 C-37.96101532 41.5498508 -35.22419542 38.07100029 -33 34 C-44.06500802 30.45919743 -55.09845191 31.26232637 -66 35 Z M112 77 C112.85804978 78.13798092 113.73745067 79.25987392 114.625 80.375 C115.35589844 81.31472656 115.35589844 81.31472656 116.1015625 82.2734375 C120.80924418 86.55490931 127.93031433 86.75025118 134 87.625 C134.8765625 87.7590625 135.753125 87.893125 136.65625 88.03125 C141.14502292 88.69374962 145.44809502 89.16470709 150 89 C149.67 91.97 149.34 94.94 149 98 C148.13117188 97.855625 147.26234375 97.71125 146.3671875 97.5625 C145.21476562 97.376875 144.06234375 97.19125 142.875 97 C141.73804688 96.814375 140.60109375 96.62875 139.4296875 96.4375 C136.23862398 96.03043951 133.21182209 95.92190098 130 96 C130.66 96.99 131.32 97.98 132 99 C132.54285745 102.86987489 132.25903999 104.57744453 130.19921875 107.9375 C129.37035156 108.948125 128.54148437 109.95875 127.6875 111 C127.24615723 111.55034912 126.80481445 112.10069824 126.35009766 112.66772461 C124.91351464 114.45652979 123.45831662 116.22888229 122 118 C120.4469821 119.89867546 118.89916917 121.80091452 117.36254883 123.71289062 C116.38647295 124.92653757 115.40088269 126.13260619 114.4050293 127.33007812 C111.77604533 130.58885846 111 131.65974001 111 136 C112.87138661 138.51654892 112.87138661 138.51654892 116 140 C117.91966761 140.03754719 117.91966761 140.03754719 119.98828125 139.69140625 C122.56293341 139.32456583 125.07918273 138.99567517 127.67749023 138.85375977 C135.49971503 138.31915965 142.38583059 136.73776756 148 131 C155.27862011 118.31045333 161 98.67358494 161 84 C156.82326431 83.32390274 152.64641987 82.64848219 148.46948242 81.97363281 C147.05474033 81.74496822 145.64002581 81.51613297 144.2253418 81.28710938 C140.13690603 80.62529656 136.04787358 79.96738804 131.95806885 79.31408691 C130.05666193 79.00908894 128.15600292 78.69943978 126.25537109 78.38964844 C125.11277832 78.20692383 123.97018555 78.02419922 122.79296875 77.8359375 C121.79160889 77.67399902 120.79024902 77.51206055 119.75854492 77.34521484 C117.13728235 77.01718004 114.63813183 76.93553041 112 77 Z M105 85 C103.45772031 86.9592057 103.45772031 86.9592057 101.8125 89.625 C97.88944123 95.65883495 93.87426506 101.62107187 89.8125 107.5625 C89.17199707 108.50158203 88.53149414 109.44066406 87.87158203 110.40820312 C84.66123656 115.11361345 81.44271483 119.81318819 78.2109375 124.50390625 C77.61692139 125.36749756 77.02290527 126.23108887 76.41088867 127.12084961 C75.28825097 128.7520856 74.16351701 130.38188153 73.03637695 132.01000977 C72.53323975 132.74147217 72.03010254 133.47293457 71.51171875 134.2265625 C71.07303467 134.86158691 70.63435059 135.49661133 70.18237305 136.15087891 C68.9716545 138.04432971 67.96840806 139.97343857 67 142 C68.72572488 143.44163007 70.4557347 144.87813165 72.1875 146.3125 C73.63189453 147.51326172 73.63189453 147.51326172 75.10546875 148.73828125 C77.65588917 150.73111988 80.18642401 152.41061246 83 154 C89.80860637 145.57204941 96.50262248 137.07396308 103.046875 128.43896484 C107.51503636 122.57047526 112.14238039 116.84315212 116.86303711 111.17602539 C117.37616455 110.5546167 117.88929199 109.93320801 118.41796875 109.29296875 C118.86938232 108.7518042 119.3207959 108.21063965 119.78588867 107.65307617 C121.10625644 105.85532629 122.05696211 104.01757947 123 102 C122.58637207 101.59160889 122.17274414 101.18321777 121.74658203 100.76245117 C119.87008967 98.9067736 117.99751551 97.04719006 116.125 95.1875 C115.14853516 94.22360352 115.14853516 94.22360352 114.15234375 93.24023438 C113.52714844 92.61826172 112.90195312 91.99628906 112.2578125 91.35546875 C111.6817627 90.78465576 111.10571289 90.21384277 110.51220703 89.62573242 C109 88 109 88 107 85 C106.34 85 105.68 85 105 85 Z M-203.52807617 100.49707031 C-205.42800198 102.73734803 -207.3156861 104.98615427 -209.1875 107.25 C-209.85458984 108.02730469 -210.52167969 108.80460937 -211.20898438 109.60546875 C-211.83482422 110.35957031 -212.46066406 111.11367187 -213.10546875 111.890625 C-213.68449951 112.58188477 -214.26353027 113.27314453 -214.86010742 113.98535156 C-216.20552699 115.92123978 -216.20552699 115.92123978 -215.82202148 118.09960938 C-214.50914852 121.13477515 -212.25123858 122.98383242 -209.875 125.25 C-205.94354887 129.05473232 -202.22709721 132.94390279 -198.67578125 137.10546875 C-196.23345816 139.86660325 -193.59445739 142.41468811 -190.96875 145 C-188.45339354 147.55528276 -186.13810337 150.25603616 -183.8046875 152.9765625 C-181.20025166 155.89668754 -178.41047626 158.61378555 -175.6015625 161.3359375 C-174 163 -174 163 -173 165 C-169.10082032 163.38462556 -166.28706228 160.72075127 -163.25 157.875 C-162.74339844 157.40707031 -162.23679688 156.93914062 -161.71484375 156.45703125 C-160.47280859 155.30873459 -159.23588506 154.15491328 -158 153 C-158.87597535 148.44591309 -161.54728027 145.74403956 -164.5625 142.375 C-165.66531987 141.11698656 -166.76687949 139.85786724 -167.8671875 138.59765625 C-168.40569336 137.98293457 -168.94419922 137.36821289 -169.49902344 136.73486328 C-172.12434306 133.70045839 -174.60193134 130.55317822 -177.08984375 127.40625 C-179.84659213 123.9335363 -182.6702024 120.51675677 -185.48828125 117.09375 C-187.40406176 114.73403279 -189.29355654 112.36099593 -191.16796875 109.96875 C-191.70969727 109.28063232 -192.25142578 108.59251465 -192.80957031 107.88354492 C-193.88302248 106.51790385 -194.95151063 105.14834416 -196.01464844 103.7746582 C-197.29771515 102.14629684 -198.64370186 100.56788911 -200 99 C-202.1184301 98.76672579 -202.1184301 98.76672579 -203.52807617 100.49707031 Z M198.5546875 151.28515625 C197.72324219 152.16494141 197.72324219 152.16494141 196.875 153.0625 C193.64590952 156.39990379 190.25213552 159.43435363 186.69921875 162.421875 C184.77407483 164.08734976 184.77407483 164.08734976 183 167 C183.34144043 167.44166504 183.68288086 167.88333008 184.03466797 168.33837891 C190.1858594 176.30710831 196.28960952 184.29277263 202.09667969 192.51660156 C207.9357371 200.77084087 213.9852531 208.87344339 220 217 C223.83875464 215.2100189 226.68150161 212.75020716 229.75 209.875 C230.25660156 209.40707031 230.76320313 208.93914062 231.28515625 208.45703125 C232.52719141 207.30873459 233.76411494 206.15491328 235 205 C233.33701885 200.13530226 230.64608496 196.09932632 227.875 191.8125 C222.64644799 183.63343989 217.51807223 175.39641765 212.4375 167.125 C211.7470459 166.00198486 211.0565918 164.87896973 210.34521484 163.72192383 C205.11631886 155.20863968 205.11631886 155.20863968 203.41430664 152.15576172 C202.94758545 151.44436035 202.48086426 150.73295898 202 150 C199.92675739 149.7785036 199.92675739 149.7785036 198.5546875 151.28515625 Z M-43 314 C-38.54307375 321.8946919 -33.78117054 329.53727661 -28.82104492 337.12280273 C-27.93248286 338.48173336 -27.04727456 339.84286497 -26.16601562 341.20654297 C-25.18624346 342.7135376 -24.18185664 344.20448884 -23.171875 345.69140625 C-21.73888502 348.51439651 -21.33620985 349.88454694 -22 353 C-23.81857416 354.99644482 -25.466916 356.53301256 -27.5625 358.1875 C-28.14604248 358.6623584 -28.72958496 359.1372168 -29.33081055 359.62646484 C-71.30114656 393.16488744 -125.56811805 411.04088082 -179 410 C-180.98 396.47 -182.96 382.94 -185 369 C-188.18410966 368.66299085 -188.18410966 368.66299085 -190.453125 371.23828125 C-191.39678591 372.25256083 -192.32842701 373.27811024 -193.25 374.3125 C-193.73799072 374.85503418 -194.22598145 375.39756836 -194.72875977 375.95654297 C-204.15480261 386.67000736 -210.99593596 397.99157781 -210.50390625 412.59375 C-209.55517556 419.0068753 -206.79601537 423.58097546 -201.9140625 427.8046875 C-199.6744198 429.38422498 -197.42052183 430.71688057 -195 432 C-194.31164062 432.37769531 -193.62328125 432.75539063 -192.9140625 433.14453125 C-164.03439905 447.47700363 -123.93910609 438.87355488 -94.94702148 429.43798828 C-80.12086276 424.41233218 -65.80384591 418.38226319 -52 411 C-51.40525879 410.68595215 -50.81051758 410.3719043 -50.19775391 410.04833984 C-27.99619513 398.23483475 -1.72054649 379.26489622 7.12890625 354.890625 C9.08592552 347.97523853 10.02705834 341.64570452 7.08984375 334.9140625 C1.67412143 325.33098775 -6.69089407 320.22012119 -17 317 C-25.54564154 314.79806873 -34.15367846 313.42583971 -43 314 Z M-43.45410156 341.35205078 C-80.21571387 369.30171586 -127.01002426 385.56622391 -173 388 C-172.85970581 390.1462026 -172.71261836 392.29196218 -172.5625 394.4375 C-172.48128906 395.63246094 -172.40007812 396.82742188 -172.31640625 398.05859375 C-172.32343886 400.88570244 -172.32343886 400.88570244 -171 402 C-126.5760683 406.16224225 -75.82536493 383.19783807 -41 357.5625 C-39.98389648 356.81818726 -39.98389648 356.81818726 -38.94726562 356.05883789 C-34.36808383 352.82019293 -34.36808383 352.82019293 -32 348 C-33.03403233 345.3237934 -33.03403233 345.3237934 -34.8125 342.75 C-35.65748047 341.41195313 -35.65748047 341.41195313 -36.51953125 340.046875 C-37.25236328 339.03367187 -37.25236328 339.03367187 -38 338 C-40.16298265 338 -41.7953891 340.08408823 -43.45410156 341.35205078 Z " fill="#000000" transform="translate(247,20)"/>
<path d="M0 0 C3.72873095 0.840659 7.09964915 2.18815001 10.58177185 3.74380493 C11.32218216 4.06347229 12.06259247 4.38313965 12.82543945 4.7124939 C15.16728547 5.72727995 17.50126877 6.75892088 19.8356781 7.79067993 C21.39576874 8.46751377 22.95631291 9.14330322 24.51731873 9.81802368 C28.19237563 11.41123532 31.84607901 13.04767425 35.49504089 14.69961548 C37.18575552 15.44680279 38.90033927 16.13944825 40.61741638 16.82388306 C41.50541931 17.19964478 42.39342224 17.57540649 43.30833435 17.96255493 C44.04318054 18.25227173 44.77802673 18.54198853 45.53514099 18.84048462 C48.67070339 21.70197807 49.28203331 25.53795692 50.3981781 29.54067993 C50.81123451 30.93531464 50.81123451 30.93531464 51.2326355 32.35812378 C52.16431383 35.51288356 53.07099463 38.67401572 53.97239685 41.83755493 C54.4654406 43.56525116 54.4654406 43.56525116 54.96844482 45.32785034 C55.65786818 47.74790554 56.3460964 50.16830149 57.03318787 52.58901978 C58.08683512 56.29474922 59.14967278 59.99776848 60.21263123 63.70083618 C60.8831223 66.05874732 61.55306342 68.41681492 62.22239685 70.77505493 C62.54109238 71.88032532 62.8597879 72.9855957 63.18814087 74.12435913 C63.47876907 75.1560321 63.76939728 76.18770508 64.0688324 77.25064087 C64.45496956 78.60557648 64.45496956 78.60557648 64.84890747 79.98788452 C65.43762827 82.7240289 65.86371698 84.76701995 65.3981781 87.54067993 C61.92659537 90.3421242 58.04157708 91.40140004 53.79124451 92.59365845 C52.82678154 92.86747345 52.82678154 92.86747345 51.84283447 93.14682007 C49.73036348 93.74470704 47.61514784 94.33218118 45.4997406 94.91958618 C44.02131798 95.33584726 42.54307967 95.75276347 41.0650177 96.17030334 C37.17988433 97.26594786 33.29234393 98.35279596 29.40422058 99.43777466 C25.4632376 100.53912034 21.524545 101.64859177 17.5856781 102.75747681 C10.64224959 104.71124653 3.69683414 106.65780234 -3.25010681 108.5990448 C-5.61433023 109.26325276 -7.9690724 109.96167095 -10.31608582 110.68434143 C-13.85465246 111.6065734 -16.08241189 111.39907262 -19.6018219 110.54067993 C-23.6664097 98.85920095 -27.16079803 87.03783284 -30.53321838 75.14028931 C-31.42137308 72.01587477 -32.32302108 68.89554066 -33.22486877 65.77505493 C-33.79535958 63.77008239 -34.36505032 61.76488199 -34.93385315 59.75942993 C-35.20252701 58.8364209 -35.47120087 57.91341187 -35.74801636 56.96243286 C-38.96007783 45.48929882 -38.96007783 45.48929882 -36.59889221 40.36343384 C-36.13064026 39.75419067 -35.66238831 39.14494751 -35.1799469 38.51724243 C-34.6547345 37.81454224 -34.12952209 37.11184204 -33.58839417 36.3878479 C-33.01532532 35.65453247 -32.44225647 34.92121704 -31.8518219 34.16567993 C-30.65668315 32.57798699 -29.46270066 30.98942311 -28.26979065 29.40005493 C-27.65925842 28.59632446 -27.0487262 27.79259399 -26.41969299 26.96450806 C-23.57906249 23.17700072 -20.8729344 19.29814019 -18.1643219 15.41567993 C-16.78082464 13.43702317 -15.39538276 11.46251017 -13.97731018 9.50845337 C-12.55003414 7.51930996 -12.55003414 7.51930996 -11.23805237 5.23696899 C-10.76899475 4.49414673 -10.29993713 3.75132446 -9.81666565 2.98599243 C-9.21326355 1.96142944 -9.21326355 1.96142944 -8.59767151 0.91616821 C-5.6683374 -1.10265361 -3.42696726 -0.53250143 0 0 Z M9.2106781 53.91567993 C8.37858826 54.13739868 7.54649841 54.35911743 6.68919373 54.58755493 C5.89835388 54.80669556 5.10751404 55.02583618 4.29270935 55.25161743 C3.20760071 55.55011597 3.20760071 55.55011597 2.10057068 55.85464478 C0.18931646 56.40636849 0.18931646 56.40636849 -0.6018219 58.54067993 C-0.01660358 61.18832089 0.63994317 63.75305255 1.3825531 66.35708618 C1.59881348 67.12874619 1.81507385 67.90040619 2.03788757 68.69544983 C2.49828005 70.32811732 2.96256257 71.95969206 3.43040466 73.59024048 C4.14517224 76.09265635 4.83863124 78.60034459 5.5309906 81.10903931 C5.98022087 82.6920884 6.43070003 84.27478373 6.8825531 85.85708618 C7.08894409 86.61123306 7.29533508 87.36537994 7.50798035 88.14237976 C8.04360021 89.97214886 8.71036739 91.76251795 9.3981781 93.54067993 C12.6345637 94.61947513 13.40530961 94.49250866 16.55833435 93.61489868 C17.35175232 93.39511353 18.14517029 93.17532837 18.96263123 92.94888306 C19.78698669 92.71105103 20.61134216 92.47321899 21.4606781 92.22817993 C22.28890076 92.00194946 23.11712341 91.77571899 23.97044373 91.54263306 C28.6251051 90.34888211 28.6251051 90.34888211 32.3981781 87.54067993 C29.0981781 75.66067993 25.7981781 63.78067993 22.3981781 51.54067993 C17.6494444 51.54067993 13.75290976 52.64542504 9.2106781 53.91567993 Z " fill="#000000" transform="translate(383.60182189941406,330.4593200683594)"/>
<path d="M0 0 C0 2.97 0 5.94 0 9 C-3.83567829 9.95891957 -6.82281141 10.10177189 -10.75 10.0625 C-11.92046875 10.05347656 -13.0909375 10.04445312 -14.296875 10.03515625 C-15.18890625 10.02355469 -16.0809375 10.01195312 -17 10 C-17 7.03 -17 4.06 -17 1 C-14.9168207 0.83141902 -12.83344956 0.66520745 -10.75 0.5 C-9.58984375 0.4071875 -8.4296875 0.314375 -7.234375 0.21875 C-4.82731342 0.05595356 -2.41256049 0 0 0 Z " fill="#000000" transform="translate(184,118)"/>
<path d="M0 0 C0 2.97 0 5.94 0 9 C-3.64138242 9.83725216 -7.01594496 10.13509204 -10.75 10.125 C-12.19632813 10.12886719 -12.19632813 10.12886719 -13.671875 10.1328125 C-16 10 -16 10 -17 9 C-17.14115161 6.32941149 -17.04247107 3.67567762 -17 1 C-14.9168207 0.83141902 -12.83344956 0.66520745 -10.75 0.5 C-9.58984375 0.4071875 -8.4296875 0.314375 -7.234375 0.21875 C-4.82731342 0.05595356 -2.41256049 0 0 0 Z " fill="#000000" transform="translate(185,142)"/>
</svg>
